<svg version="1.1" id="Layer_1" xmlns="http://www.w3.org/2000/svg" xmlns:xlink="http://www.w3.org/1999/xlink" x="0px" y="0px"
	 width="100%" viewBox="0 0 500 500" enable-background="new 0 0 500 500" xml:space="preserve">
<path fill="#FEFEFE" opacity="1.000000" stroke="none" 
	d="
M231.000000,501.000000 
	C154.000015,501.000000 77.500038,501.000000 1.000041,501.000000 
	C1.000027,334.333405 1.000027,167.666779 1.000014,1.000131 
	C167.666565,1.000087 334.333130,1.000087 500.999756,1.000044 
	C500.999847,167.666519 500.999847,334.333038 500.999939,500.999786 
	C411.166656,501.000000 321.333344,501.000000 231.000000,501.000000 
M116.063873,142.537521 
	C105.047874,149.693558 97.327660,159.543121 93.103065,171.894638 
	C86.126678,192.291672 85.769119,213.176147 90.517204,234.001282 
	C94.050323,249.497574 103.210564,261.224091 117.212563,269.119263 
	C131.613129,277.239136 147.267426,279.610046 163.446655,279.624817 
	C215.777542,279.672546 268.108673,279.588135 320.439209,279.728058 
	C325.374451,279.741241 330.466034,280.412903 335.205658,281.761108 
	C344.283600,284.343353 348.469513,291.073608 348.127563,301.072784 
	C347.883240,308.218964 341.809204,315.261810 333.641144,316.782990 
	C326.970184,318.025330 320.128174,318.963654 313.360077,318.975830 
	C239.863785,319.107971 166.367096,319.029236 92.870506,319.019287 
	C91.261879,319.019073 89.653229,319.151947 87.885887,319.229706 
	C87.885887,338.710815 87.885887,357.802887 87.885887,377.478180 
	C91.110870,377.478180 94.067528,377.478424 97.024193,377.478119 
	C177.687164,377.469940 258.350220,377.508423 339.012970,377.372406 
	C346.144806,377.360382 353.372314,376.750641 360.387787,375.487579 
	C383.719360,371.287140 402.738617,360.514648 413.285187,338.200684 
	C421.833191,320.115265 423.010620,300.873840 420.064301,281.464722 
	C415.864166,253.795746 398.399292,237.886581 372.151855,231.486008 
	C361.095490,228.789841 349.462769,227.398987 338.075653,227.299881 
	C288.081726,226.864731 238.081741,227.160416 188.084244,227.051529 
	C183.636002,227.041855 179.103180,226.401993 174.761276,225.398605 
	C166.167419,223.412628 160.700928,216.787979 160.603210,208.965927 
	C160.485245,199.519928 165.052948,192.782837 174.085754,190.555527 
	C180.177902,189.053345 186.540955,187.897141 192.785919,187.882172 
	C267.115356,187.703857 341.445404,187.769165 415.775269,187.770584 
	C417.426331,187.770615 419.077423,187.770584 421.425079,187.770584 
	C420.492706,186.260315 420.306061,185.776932 419.971222,185.441452 
	C402.077057,167.514496 384.198151,149.571915 366.197174,131.752701 
	C365.095154,130.661758 363.017395,130.065994 361.392670,130.064178 
	C294.062469,129.988785 226.731903,129.904938 159.402130,130.093445 
	C144.173340,130.136063 129.723541,133.904099 116.063873,142.537521 
z"/>
<path fill="#1A1B1D" opacity="1.000000" stroke="none" 
	d="
M116.365372,142.335861 
	C129.723541,133.904099 144.173340,130.136063 159.402130,130.093445 
	C226.731903,129.904938 294.062469,129.988785 361.392670,130.064178 
	C363.017395,130.065994 365.095154,130.661758 366.197174,131.752701 
	C384.198151,149.571915 402.077057,167.514496 419.971222,185.441452 
	C420.306061,185.776932 420.492706,186.260315 421.425079,187.770584 
	C419.077423,187.770584 417.426331,187.770615 415.775269,187.770584 
	C341.445404,187.769165 267.115356,187.703857 192.785919,187.882172 
	C186.540955,187.897141 180.177902,189.053345 174.085754,190.555527 
	C165.052948,192.782837 160.485245,199.519928 160.603210,208.965927 
	C160.700928,216.787979 166.167419,223.412628 174.761276,225.398605 
	C179.103180,226.401993 183.636002,227.041855 188.084244,227.051529 
	C238.081741,227.160416 288.081726,226.864731 338.075653,227.299881 
	C349.462769,227.398987 361.095490,228.789841 372.151855,231.486008 
	C398.399292,237.886581 415.864166,253.795746 420.064301,281.464722 
	C423.010620,300.873840 421.833191,320.115265 413.285187,338.200684 
	C402.738617,360.514648 383.719360,371.287140 360.387787,375.487579 
	C353.372314,376.750641 346.144806,377.360382 339.012970,377.372406 
	C258.350220,377.508423 177.687164,377.469940 97.024193,377.478119 
	C94.067528,377.478424 91.110870,377.478180 87.885887,377.478180 
	C87.885887,357.802887 87.885887,338.710815 87.885887,319.229706 
	C89.653229,319.151947 91.261879,319.019073 92.870506,319.019287 
	C166.367096,319.029236 239.863785,319.107971 313.360077,318.975830 
	C320.128174,318.963654 326.970184,318.025330 333.641144,316.782990 
	C341.809204,315.261810 347.883240,308.218964 348.127563,301.072784 
	C348.469513,291.073608 344.283600,284.343353 335.205658,281.761108 
	C330.466034,280.412903 325.374451,279.741241 320.439209,279.728058 
	C268.108673,279.588135 215.777542,279.672546 163.446655,279.624817 
	C147.267426,279.610046 131.613129,277.239136 117.212563,269.119263 
	C103.210564,261.224091 94.050323,249.497574 90.517204,234.001282 
	C85.769119,213.176147 86.126678,192.291672 93.103065,171.894638 
	C97.327660,159.543121 105.047874,149.693558 116.365372,142.335861 
z"/>
</svg>